<svg viewBox="0 0 880 150" xmlns="http://www.w3.org/2000/svg" font-family="system-ui,-apple-system,BlinkMacSystemFont,'Segoe UI',sans-serif">
  <rect width="880" height="150" rx="12" fill="#f8fafc" stroke="#e2e8f0" stroke-width="1"/>
  <text x="440" y="24" text-anchor="middle" font-size="13.5" font-weight="600" fill="#0f172a" letter-spacing="-0.3">AI scenario pipeline — imported datasets</text>
  <text x="440" y="40" text-anchor="middle" font-size="10" fill="#64748b">Connect any AI provider · nothing is applied until you confirm in the review modal</text>

  <rect x="46" y="52" width="108" height="64" rx="8" fill="#dbeafe" stroke="#3b82f6" stroke-width="1.5"/>
  <circle cx="62" cy="67" r="9" fill="#3b82f6"/>
  <text x="62" y="71.5" text-anchor="middle" font-size="10" font-weight="700" fill="white">1</text>
  <text x="100" y="89" text-anchor="middle" font-size="12" font-weight="600" fill="#1e40af">Upload</text>
  <text x="100" y="105" text-anchor="middle" font-size="9.5" fill="#3b82f6">CSV · XLSX · JSON</text>

  <line x1="157" y1="84" x2="174" y2="84" stroke="#cbd5e1" stroke-width="1.5"/>
  <polygon points="174,80 182,84 174,88" fill="#cbd5e1"/>

  <rect x="182" y="52" width="108" height="64" rx="8" fill="#ede9fe" stroke="#7c3aed" stroke-width="1.5"/>
  <circle cx="198" cy="67" r="9" fill="#7c3aed"/>
  <text x="198" y="71.5" text-anchor="middle" font-size="10" font-weight="700" fill="white">2</text>
  <text x="236" y="89" text-anchor="middle" font-size="12" font-weight="600" fill="#4c1d95">Describe</text>
  <text x="236" y="105" text-anchor="middle" font-size="9.5" fill="#7c3aed">plain language</text>

  <line x1="293" y1="84" x2="310" y2="84" stroke="#cbd5e1" stroke-width="1.5"/>
  <polygon points="310,80 318,84 310,88" fill="#cbd5e1"/>

  <rect x="318" y="52" width="108" height="64" rx="8" fill="#fdf4ff" stroke="#a21caf" stroke-width="1.5"/>
  <circle cx="334" cy="67" r="9" fill="#a21caf"/>
  <text x="334" y="71.5" text-anchor="middle" font-size="10" font-weight="700" fill="white">3</text>
  <text x="372" y="89" text-anchor="middle" font-size="12" font-weight="600" fill="#701a75">AI maps</text>
  <text x="372" y="105" text-anchor="middle" font-size="9.5" fill="#a21caf">structured JSON</text>

  <line x1="429" y1="84" x2="446" y2="84" stroke="#cbd5e1" stroke-width="1.5"/>
  <polygon points="446,80 454,84 446,88" fill="#cbd5e1"/>

  <rect x="454" y="52" width="108" height="64" rx="8" fill="#fef3c7" stroke="#d97706" stroke-width="1.5"/>
  <circle cx="470" cy="67" r="9" fill="#d97706"/>
  <text x="470" y="71.5" text-anchor="middle" font-size="10" font-weight="700" fill="white">4</text>
  <text x="508" y="89" text-anchor="middle" font-size="12" font-weight="600" fill="#78350f">Validator</text>
  <text x="508" y="105" text-anchor="middle" font-size="9.5" fill="#d97706">bounds · conflicts</text>

  <line x1="565" y1="84" x2="582" y2="84" stroke="#cbd5e1" stroke-width="1.5"/>
  <polygon points="582,80 590,84 582,88" fill="#cbd5e1"/>

  <rect x="590" y="52" width="108" height="64" rx="8" fill="#dcfce7" stroke="#16a34a" stroke-width="2"/>
  <circle cx="606" cy="67" r="9" fill="#16a34a"/>
  <text x="606" y="71.5" text-anchor="middle" font-size="10" font-weight="700" fill="white">5</text>
  <text x="644" y="89" text-anchor="middle" font-size="12" font-weight="600" fill="#14532d">Review modal</text>
  <text x="644" y="105" text-anchor="middle" font-size="9.5" fill="#16a34a">edit · confirm</text>

  <line x1="701" y1="84" x2="718" y2="84" stroke="#cbd5e1" stroke-width="1.5"/>
  <polygon points="718,80 726,84 718,88" fill="#cbd5e1"/>

  <rect x="726" y="52" width="108" height="64" rx="8" fill="#dbeafe" stroke="#2563eb" stroke-width="1.5"/>
  <circle cx="742" cy="67" r="9" fill="#2563eb"/>
  <text x="742" y="71.5" text-anchor="middle" font-size="10" font-weight="700" fill="white">6</text>
  <text x="780" y="89" text-anchor="middle" font-size="12" font-weight="600" fill="#1e3a8a">Simulation</text>
  <text x="780" y="105" text-anchor="middle" font-size="9.5" fill="#2563eb">scenario applied</text>
</svg>
