<svg xmlns="http://www.w3.org/2000/svg" viewBox="0 0 900 520" font-family="-apple-system, BlinkMacSystemFont, 'Segoe UI', Roboto, Helvetica, Arial, sans-serif" role="img" aria-label="Step 3 — applying a what-if scenario and seeing divergence from baseline">
<defs>
  <linearGradient id="bl" x1="0" y1="0" x2="1" y2="0"><stop offset="0" stop-color="#1d4ed8"/><stop offset="1" stop-color="#60a5fa"/></linearGradient>
  <linearGradient id="rd" x1="0" y1="0" x2="1" y2="0"><stop offset="0" stop-color="#dc2626"/><stop offset="1" stop-color="#fb7185"/></linearGradient>
  <linearGradient id="am" x1="0" y1="0" x2="1" y2="0"><stop offset="0" stop-color="#d97706"/><stop offset="1" stop-color="#fbbf24"/></linearGradient>
  <linearGradient id="gr" x1="0" y1="0" x2="1" y2="0"><stop offset="0" stop-color="#059669"/><stop offset="1" stop-color="#34d399"/></linearGradient>
  <linearGradient id="vi" x1="0" y1="0" x2="1" y2="0"><stop offset="0" stop-color="#7c3aed"/><stop offset="1" stop-color="#a78bfa"/></linearGradient>
</defs>
<rect x="0" y="0" width="900" height="520" rx="16" fill="#ffffff"/>
<rect x="0.75" y="0.75" width="898.5" height="518.5" rx="15.25" fill="none" stroke="#cbd5e1" stroke-width="1.5"/>
<rect x="30" y="24" width="74" height="23" rx="11.5" fill="#dbeafe"/>
<text x="67" y="40" text-anchor="middle" fill="#2563eb" font-size="12" font-weight="800" letter-spacing="0.5">STEP 3</text>
<text x="118" y="42" fill="#0f172a" font-size="20" font-weight="800">Run what-if scenarios</text>
<text x="30" y="74" fill="#475569" font-size="13.5">One-click Black Swan shocks or custom rates — see the divergence from baseline instantly.</text>
<rect x="30" y="90" width="840" height="3" rx="1.5" fill="#e2e8f0"/>
<rect x="30" y="90" width="0" height="3" rx="1.5" fill="#2563eb"><animate attributeName="width" values="0;840" keyTimes="0;1" dur="10s" repeatCount="indefinite"/></rect>
<text x="40" y="150" fill="#475569" font-size="11" font-weight="700" letter-spacing="0.5">🦢 BLACK SWAN PRESETS</text>
<rect x="40" y="166" width="248" height="32" rx="8" fill="#f8fafc" stroke="#e2e8f0"/><rect x="40" y="166" width="248" height="32" rx="8" fill="none" stroke="#2563eb" stroke-width="2" opacity="0"><animate attributeName="opacity" values="0;0;1;1" keyTimes="0;0.200;0.220;1" dur="10s" repeatCount="indefinite"/></rect><text x="54" y="187" fill="#1e293b" font-size="12.5" font-weight="700">🤖 Automation Wave</text><text x="274" y="187" text-anchor="end" fill="#2563eb" font-size="13" font-weight="800" opacity="0"><animate attributeName="opacity" values="0;0;1;1" keyTimes="0;0.220;0.240;1" dur="10s" repeatCount="indefinite"/>✓</text>
<rect x="40" y="206" width="248" height="32" rx="8" fill="#f8fafc" stroke="#e2e8f0"/><text x="54" y="227" fill="#1e293b" font-size="12.5" font-weight="500">👶 Fertility Crisis</text>
<rect x="40" y="246" width="248" height="32" rx="8" fill="#f8fafc" stroke="#e2e8f0"/><text x="54" y="267" fill="#1e293b" font-size="12.5" font-weight="500">🌐 Decoupling Shock</text>
<rect x="40" y="286" width="248" height="32" rx="8" fill="#f8fafc" stroke="#e2e8f0"/><text x="54" y="307" fill="#1e293b" font-size="12.5" font-weight="500">🦠 Pandemic Wave</text>
<rect x="40" y="326" width="248" height="32" rx="8" fill="#f8fafc" stroke="#e2e8f0"/><text x="54" y="347" fill="#1e293b" font-size="12.5" font-weight="500">⚡ Energy Shock</text>
  <line x1="320" y1="176" x2="320" y2="420" stroke="#cbd5e1" stroke-width="1.5"/>
  <line x1="320" y1="420" x2="826" y2="420" stroke="#cbd5e1" stroke-width="1.5"/>
  <line x1="320" y1="345.0" x2="826" y2="345.0" stroke="#eef2f7" stroke-width="1"/>
  <line x1="320" y1="270.0" x2="826" y2="270.0" stroke="#eef2f7" stroke-width="1"/>
  <line x1="320" y1="195.0" x2="826" y2="195.0" stroke="#eef2f7" stroke-width="1"/>
<line x1="550.0" y1="178" x2="550.0" y2="420" stroke="#cbd5e1" stroke-width="1.5" stroke-dasharray="4 4"><animate attributeName="opacity" values="0;0;1;1" keyTimes="0;0.300;0.320;1" dur="10s" repeatCount="indefinite"/></line>
<polyline points="320.0,348.0 550.0,314.4 820.0,288.0" fill="none" stroke="#94a3b8" stroke-width="2.5" stroke-dasharray="6 5"><animate attributeName="stroke-dashoffset" values="528.9153459363977;528.9153459363977;0;0" keyTimes="0;0.050;0.180;1" dur="10s" repeatCount="indefinite"/></polyline>
<polyline points="320.0,348.0 550.0,314.4 630.0,280.8 720.0,247.2 820.0,213.6" fill="none" stroke="url(#bl)" stroke-width="3.8" stroke-linecap="round" stroke-linejoin="round" stroke-dasharray="546.8" stroke-dashoffset="546.8"><animate attributeName="stroke-dashoffset" values="546.8108590422202;546.8108590422202;0;0" keyTimes="0;0.300;0.550;1" dur="10s" repeatCount="indefinite"/></polyline>
<g opacity="0"><animate attributeName="opacity" values="0;0;1;1" keyTimes="0;0.340;0.360;1" dur="10s" repeatCount="indefinite"/><rect x="440" y="148" width="230" height="28" rx="14" fill="#2563eb"/><text x="555" y="167" text-anchor="middle" fill="#fff" font-size="12.5" font-weight="700">⚡ +2.5%/yr · dispersed</text></g>
<text x="816.0" y="203.6" text-anchor="end" fill="#2563eb" font-size="15" font-weight="800" opacity="0"><animate attributeName="opacity" values="0;0;1;1" keyTimes="0;0.600;0.620;1" dur="10s" repeatCount="indefinite"/>+31% vs baseline</text>
<text x="550.0" y="442" text-anchor="middle" fill="#94a3b8" font-size="11"><animate attributeName="opacity" values="0;0;1;1" keyTimes="0;0.300;0.320;1" dur="10s" repeatCount="indefinite"/>shock 2030</text>
<text x="320" y="442" fill="#94a3b8" font-size="11">1990</text><text x="826" y="442" text-anchor="end" fill="#94a3b8" font-size="11">2100</text>

<text x="30" y="502" fill="#94a3b8" font-size="12">Data ISC · open-source · runs in your browser · dataisc.dev</text>
<text x="870" y="502" text-anchor="end" fill="#cbd5e1" font-size="11" font-style="italic">illustrative</text>
<rect x="0" y="0" width="900" height="520" rx="16" fill="#ffffff" opacity="0"><animate attributeName="opacity" values="1;0;0;0;1" keyTimes="0;0.04;0.5;0.965;1" dur="10s" repeatCount="indefinite"/></rect>
</svg>
