<svg xmlns="http://www.w3.org/2000/svg" viewBox="0 0 900 520" font-family="-apple-system, BlinkMacSystemFont, 'Segoe UI', Roboto, Helvetica, Arial, sans-serif" role="img" aria-label="Step 6 — exporting the race as a social video in multiple formats">
<defs>
  <linearGradient id="bl" x1="0" y1="0" x2="1" y2="0"><stop offset="0" stop-color="#1d4ed8"/><stop offset="1" stop-color="#60a5fa"/></linearGradient>
  <linearGradient id="rd" x1="0" y1="0" x2="1" y2="0"><stop offset="0" stop-color="#dc2626"/><stop offset="1" stop-color="#fb7185"/></linearGradient>
  <linearGradient id="am" x1="0" y1="0" x2="1" y2="0"><stop offset="0" stop-color="#d97706"/><stop offset="1" stop-color="#fbbf24"/></linearGradient>
  <linearGradient id="gr" x1="0" y1="0" x2="1" y2="0"><stop offset="0" stop-color="#059669"/><stop offset="1" stop-color="#34d399"/></linearGradient>
  <linearGradient id="vi" x1="0" y1="0" x2="1" y2="0"><stop offset="0" stop-color="#7c3aed"/><stop offset="1" stop-color="#a78bfa"/></linearGradient>
</defs>
<rect x="0" y="0" width="900" height="520" rx="16" fill="#ffffff"/>
<rect x="0.75" y="0.75" width="898.5" height="518.5" rx="15.25" fill="none" stroke="#cbd5e1" stroke-width="1.5"/>
<rect x="30" y="24" width="74" height="23" rx="11.5" fill="#dbeafe"/>
<text x="67" y="40" text-anchor="middle" fill="#2563eb" font-size="12" font-weight="800" letter-spacing="0.5">STEP 6</text>
<text x="118" y="42" fill="#0f172a" font-size="20" font-weight="800">Export to social video</text>
<text x="30" y="74" fill="#475569" font-size="13.5">Render the race to a WebM in 16:9, 1:1 or 9:16 — ready for LinkedIn, Instagram or TikTok.</text>
<rect x="30" y="90" width="840" height="3" rx="1.5" fill="#e2e8f0"/>
<rect x="30" y="90" width="0" height="3" rx="1.5" fill="#2563eb"><animate attributeName="width" values="0;840" keyTimes="0;1" dur="10s" repeatCount="indefinite"/></rect>
<text x="50" y="150" fill="#475569" font-size="11" font-weight="700" letter-spacing="0.5">FORMAT</text>
<rect x="50" y="214" width="150" height="84" rx="8" fill="#f8fafc" stroke="#cbd5e1" stroke-width="1.5"/><rect x="50" y="214" width="150" height="84" rx="8" fill="none" stroke="#2563eb" stroke-width="2.5" opacity="0"><animate attributeName="opacity" values="0;0;1;1;0;0" keyTimes="0;0.050;0.060;0.200;0.210;1" dur="10s" repeatCount="indefinite"/></rect><rect x="50" y="214" width="150" height="84" rx="8" fill="none" stroke="#2563eb" stroke-width="2.5" opacity="0"><animate attributeName="opacity" values="0;0;1;1" keyTimes="0;0.420;0.440;1" dur="10s" repeatCount="indefinite"/></rect><circle cx="188" cy="226" r="9" fill="#2563eb" opacity="0"><animate attributeName="opacity" values="0;0;1;1" keyTimes="0;0.420;0.440;1" dur="10s" repeatCount="indefinite"/></circle><text x="188" y="230" text-anchor="middle" fill="#fff" font-size="11" font-weight="800" opacity="0"><animate attributeName="opacity" values="0;0;1;1" keyTimes="0;0.420;0.440;1" dur="10s" repeatCount="indefinite"/>✓</text><rect x="61" y="243" width="109" height="5.5" rx="2" fill="#dc2626"/><rect x="61" y="253" width="77" height="5.5" rx="2" fill="#2563eb"/><rect x="61" y="263" width="51" height="5.5" rx="2" fill="#d97706"/><text x="125" y="320" text-anchor="middle" fill="#0f172a" font-size="12" font-weight="700">16:9 Landscape</text><text x="125" y="337" text-anchor="middle" fill="#94a3b8" font-size="10.5">LinkedIn · Facebook</text>
<rect x="238" y="198" width="100" height="100" rx="8" fill="#f8fafc" stroke="#cbd5e1" stroke-width="1.5"/><rect x="238" y="198" width="100" height="100" rx="8" fill="none" stroke="#2563eb" stroke-width="2.5" opacity="0"><animate attributeName="opacity" values="0;0;1;1;0;0" keyTimes="0;0.190;0.200;0.300;0.310;1" dur="10s" repeatCount="indefinite"/></rect><rect x="249" y="235" width="66" height="5.5" rx="2" fill="#dc2626"/><rect x="249" y="245" width="47" height="5.5" rx="2" fill="#2563eb"/><rect x="249" y="255" width="31" height="5.5" rx="2" fill="#d97706"/><text x="288" y="320" text-anchor="middle" fill="#0f172a" font-size="12" font-weight="700">1:1 Square</text><text x="288" y="337" text-anchor="middle" fill="#94a3b8" font-size="10.5">Instagram</text>
<rect x="376" y="176" width="68" height="122" rx="8" fill="#f8fafc" stroke="#cbd5e1" stroke-width="1.5"/><rect x="376" y="176" width="68" height="122" rx="8" fill="none" stroke="#2563eb" stroke-width="2.5" opacity="0"><animate attributeName="opacity" values="0;0;1;1;0;0" keyTimes="0;0.290;0.300;0.400;0.410;1" dur="10s" repeatCount="indefinite"/></rect><rect x="387" y="224" width="39" height="5.5" rx="2" fill="#dc2626"/><rect x="387" y="234" width="28" height="5.5" rx="2" fill="#2563eb"/><rect x="387" y="244" width="18" height="5.5" rx="2" fill="#d97706"/><text x="410" y="320" text-anchor="middle" fill="#0f172a" font-size="12" font-weight="700">9:16 Portrait</text><text x="410" y="337" text-anchor="middle" fill="#94a3b8" font-size="10.5">Reels · TikTok</text>
<rect x="50" y="356" width="240" height="34" rx="8" fill="#2563eb"><animate attributeName="fill" values="#2563eb;#2563eb;#1e40af;#2563eb" keyTimes="0;0.44;0.48;0.52" dur="10s" repeatCount="indefinite"/></rect><text x="170" y="378" text-anchor="middle" fill="#fff" font-size="12.5" font-weight="700">⬇ Export video (.webm)</text>
<text x="512" y="150" fill="#475569" font-size="11" font-weight="700" letter-spacing="0.5">OPTIONS</text>
<text x="512" y="178" fill="#475569" font-size="11.5">Title</text><rect x="512" y="184" width="338" height="26" rx="6" fill="#fff" stroke="#cbd5e1"/><text x="524" y="201" fill="#1e293b" font-size="11.5">GDP Rankings Race 1990–2100</text>
<text x="512" y="232" fill="#475569" font-size="11.5">Speed</text><rect x="512" y="238" width="162" height="26" rx="6" fill="#fff" stroke="#cbd5e1"/><text x="524" y="255" fill="#1e293b" font-size="11.5">Normal ▾</text>
<text x="690" y="232" fill="#475569" font-size="11.5">Top N</text><rect x="690" y="238" width="160" height="26" rx="6" fill="#fff" stroke="#cbd5e1"/><text x="702" y="255" fill="#1e293b" font-size="11.5">Top 10 ▾</text>
<g opacity="0"><animate attributeName="opacity" values="0;0;1;1;0;0" keyTimes="0;0.470;0.480;0.820;0.830;1" dur="10s" repeatCount="indefinite"/><text x="512" y="296" fill="#475569" font-size="11.5" font-weight="600">Rendering…</text><rect x="512" y="306" width="338" height="8" rx="4" fill="#e2e8f0"/><rect x="512" y="306" width="0" height="8" rx="4" fill="#2563eb"><animate attributeName="width" values="0;0;338;338" keyTimes="0;0.50;0.80;1" dur="10s" repeatCount="indefinite"/></rect></g>
<g opacity="0"><animate attributeName="opacity" values="0;0;1;1" keyTimes="0;0.840;0.860;1" dur="10s" repeatCount="indefinite"/><rect x="512" y="290" width="338" height="34" rx="8" fill="#ecfdf5" stroke="#059669"/><text x="528" y="312" fill="#059669" font-size="12.5" font-weight="700">✓ Saved — GDP_Race.webm</text></g>

<text x="30" y="502" fill="#94a3b8" font-size="12">Data ISC · open-source · runs in your browser · dataisc.dev</text>
<text x="870" y="502" text-anchor="end" fill="#cbd5e1" font-size="11" font-style="italic">illustrative</text>
<rect x="0" y="0" width="900" height="520" rx="16" fill="#ffffff" opacity="0"><animate attributeName="opacity" values="1;0;0;0;1" keyTimes="0;0.04;0.5;0.965;1" dur="10s" repeatCount="indefinite"/></rect>
</svg>
