<svg xmlns="http://www.w3.org/2000/svg" viewBox="0 0 900 520" font-family="-apple-system, BlinkMacSystemFont, 'Segoe UI', Roboto, Helvetica, Arial, sans-serif" role="img" aria-label="Step 4 — branching into two futures and comparing the gap">
<defs>
  <linearGradient id="bl" x1="0" y1="0" x2="1" y2="0"><stop offset="0" stop-color="#1d4ed8"/><stop offset="1" stop-color="#60a5fa"/></linearGradient>
  <linearGradient id="rd" x1="0" y1="0" x2="1" y2="0"><stop offset="0" stop-color="#dc2626"/><stop offset="1" stop-color="#fb7185"/></linearGradient>
  <linearGradient id="am" x1="0" y1="0" x2="1" y2="0"><stop offset="0" stop-color="#d97706"/><stop offset="1" stop-color="#fbbf24"/></linearGradient>
  <linearGradient id="gr" x1="0" y1="0" x2="1" y2="0"><stop offset="0" stop-color="#059669"/><stop offset="1" stop-color="#34d399"/></linearGradient>
  <linearGradient id="vi" x1="0" y1="0" x2="1" y2="0"><stop offset="0" stop-color="#7c3aed"/><stop offset="1" stop-color="#a78bfa"/></linearGradient>
</defs>
<rect x="0" y="0" width="900" height="520" rx="16" fill="#ffffff"/>
<rect x="0.75" y="0.75" width="898.5" height="518.5" rx="15.25" fill="none" stroke="#cbd5e1" stroke-width="1.5"/>
<rect x="30" y="24" width="74" height="23" rx="11.5" fill="#dbeafe"/>
<text x="67" y="40" text-anchor="middle" fill="#2563eb" font-size="12" font-weight="800" letter-spacing="0.5">STEP 4</text>
<text x="118" y="42" fill="#0f172a" font-size="20" font-weight="800">Branch &amp; compare futures</text>
<text x="30" y="74" fill="#475569" font-size="13.5">Build two rival scenario stacks and watch the timelines diverge, with a live gap readout.</text>
<rect x="30" y="90" width="840" height="3" rx="1.5" fill="#e2e8f0"/>
<rect x="30" y="90" width="0" height="3" rx="1.5" fill="#2563eb"><animate attributeName="width" values="0;840" keyTimes="0;1" dur="10s" repeatCount="indefinite"/></rect>
<rect x="40" y="130" width="232" height="120" rx="10" fill="#f8fafc" stroke="#e2e8f0"/>
<circle cx="56" cy="150" r="5" fill="#059669"/><text x="68" y="155" fill="#059669" font-size="12.5" font-weight="800">Branch A</text>
<g opacity="0"><animate attributeName="opacity" values="0;0;1;1" keyTimes="0;0.060;0.080;1" dur="10s" repeatCount="indefinite"/><rect x="52" y="166" width="206" height="22" rx="11" fill="#fff" stroke="#cbd5e1"/><text x="62" y="181" fill="#1e293b" font-size="11" font-weight="600">🤖 Automation Wave</text></g>
<g opacity="0"><animate attributeName="opacity" values="0;0;1;1" keyTimes="0;0.120;0.140;1" dur="10s" repeatCount="indefinite"/><rect x="52" y="194" width="206" height="22" rx="11" fill="#fff" stroke="#cbd5e1"/><text x="62" y="209" fill="#1e293b" font-size="11" font-weight="600">⚡ Energy boom</text></g>
<rect x="40" y="262" width="232" height="120" rx="10" fill="#f8fafc" stroke="#e2e8f0"/>
<circle cx="56" cy="282" r="5" fill="#dc2626"/><text x="68" y="287" fill="#dc2626" font-size="12.5" font-weight="800">Branch B</text>
<g opacity="0"><animate attributeName="opacity" values="0;0;1;1" keyTimes="0;0.220;0.240;1" dur="10s" repeatCount="indefinite"/><rect x="52" y="298" width="206" height="22" rx="11" fill="#fff" stroke="#cbd5e1"/><text x="62" y="313" fill="#1e293b" font-size="11" font-weight="600">👶 Fertility Crisis</text></g>
<g opacity="0"><animate attributeName="opacity" values="0;0;1;1" keyTimes="0;0.280;0.300;1" dur="10s" repeatCount="indefinite"/><rect x="52" y="326" width="206" height="22" rx="11" fill="#fff" stroke="#cbd5e1"/><text x="62" y="341" fill="#1e293b" font-size="11" font-weight="600">🌐 Decoupling</text></g>
<g opacity="0"><animate attributeName="opacity" values="0;0;1;1" keyTimes="0;0.400;0.420;1" dur="10s" repeatCount="indefinite"/><rect x="40" y="398" width="232" height="32" rx="8" fill="#2563eb"/><text x="156" y="419" text-anchor="middle" fill="#fff" font-size="12" font-weight="700">▶ Compare &amp; diverge</text></g>
<line x1="300" y1="174" x2="300" y2="372" stroke="#cbd5e1" stroke-width="1.5"/><line x1="300" y1="372" x2="826" y2="372" stroke="#cbd5e1" stroke-width="1.5"/>
<g opacity="0"><animate attributeName="opacity" values="0;0;1;1" keyTimes="0;0.740;0.760;1" dur="10s" repeatCount="indefinite"/><polygon points="445.6,275.0 560.0,251.7 674.4,226.5 820.0,201.3 820.0,308.0 674.4,294.4 560.0,282.8 445.6,275.0" fill="#2563eb" opacity="0.10"/></g>
<polyline points="300.0,284.7 445.6,275.0" fill="none" stroke="#94a3b8" stroke-width="3" stroke-dasharray="160.5" stroke-dashoffset="160.5"><animate attributeName="stroke-dashoffset" values="160.51502889137828;160.51502889137828;0;0" keyTimes="0;0.460;0.500;1" dur="10s" repeatCount="indefinite"/></polyline>
<polyline points="445.6,275.0 560.0,251.7 674.4,226.5 820.0,201.3" fill="none" stroke="url(#gr)" stroke-width="3.8" stroke-linecap="round" stroke-linejoin="round" stroke-dasharray="400.7" stroke-dashoffset="400.7"><animate attributeName="stroke-dashoffset" values="400.74269960564175;400.74269960564175;0;0" keyTimes="0;0.500;0.720;1" dur="10s" repeatCount="indefinite"/></polyline>
<polyline points="445.6,275.0 560.0,282.8 674.4,294.4 820.0,308.0" fill="none" stroke="url(#rd)" stroke-width="3.8" stroke-linecap="round" stroke-linejoin="round" stroke-dasharray="394.7" stroke-dashoffset="394.7"><animate attributeName="stroke-dashoffset" values="394.6797367386458;394.6797367386458;0;0" keyTimes="0;0.500;0.720;1" dur="10s" repeatCount="indefinite"/></polyline>
<g opacity="0"><animate attributeName="opacity" values="0;0;1;1" keyTimes="0;0.740;0.760;1" dur="10s" repeatCount="indefinite"/><text x="816.0" y="193.3" text-anchor="end" fill="#059669" font-size="11.5" font-weight="800">Branch A</text></g>
<g opacity="0"><animate attributeName="opacity" values="0;0;1;1" keyTimes="0;0.760;0.780;1" dur="10s" repeatCount="indefinite"/><text x="816.0" y="324.0" text-anchor="end" fill="#dc2626" font-size="11.5" font-weight="800">Branch B</text></g>
<g opacity="0"><animate attributeName="opacity" values="0;0;1;1" keyTimes="0;0.800;0.820;1" dur="10s" repeatCount="indefinite"/><rect x="300" y="392" width="160" height="44" rx="9" fill="#f8fafc" stroke="#e2e8f0"/><text x="314" y="411" fill="#475569" font-size="10.5" font-weight="600">Gap by 2050</text><text x="314" y="429" fill="#2563eb" font-size="15" font-weight="800">+24%</text></g>
<g opacity="0"><animate attributeName="opacity" values="0;0;1;1" keyTimes="0;0.840;0.860;1" dur="10s" repeatCount="indefinite"/><rect x="476" y="392" width="160" height="44" rx="9" fill="#f8fafc" stroke="#e2e8f0"/><text x="490" y="411" fill="#475569" font-size="10.5" font-weight="600">Gap by 2080</text><text x="490" y="429" fill="#2563eb" font-size="15" font-weight="800">+58%</text></g>
<g opacity="0"><animate attributeName="opacity" values="0;0;1;1" keyTimes="0;0.880;0.900;1" dur="10s" repeatCount="indefinite"/><rect x="652" y="392" width="160" height="44" rx="9" fill="#f8fafc" stroke="#e2e8f0"/><text x="666" y="411" fill="#475569" font-size="10.5" font-weight="600">Gap by 2100</text><text x="666" y="429" fill="#2563eb" font-size="15" font-weight="800">+81%</text></g>

<text x="30" y="502" fill="#94a3b8" font-size="12">Data ISC · open-source · runs in your browser · dataisc.dev</text>
<text x="870" y="502" text-anchor="end" fill="#cbd5e1" font-size="11" font-style="italic">illustrative</text>
<rect x="0" y="0" width="900" height="520" rx="16" fill="#ffffff" opacity="0"><animate attributeName="opacity" values="1;0;0;0;1" keyTimes="0;0.04;0.5;0.965;1" dur="10s" repeatCount="indefinite"/></rect>
</svg>
